<?xml version="1.0" encoding="UTF-8"?>
<svg xmlns="http://www.w3.org/2000/svg" xmlns:xlink="http://www.w3.org/1999/xlink" width="24px" height="24px" viewBox="0 0 24 24" version="1.1">
<g id="surface1">
<path style="fill:none;stroke-width:1.5;stroke-linecap:round;stroke-linejoin:round;stroke:rgb(0%,0%,0%);stroke-opacity:1;stroke-miterlimit:4;" d="M 9.223958 9.6875 L 13.0625 11.93278 C 15.302083 13.244629 16.197917 13.244629 18.4375 11.93278 L 22.276042 9.6875 " transform="matrix(0.75,0,0,0.774194,0,0)"/>
<path style="fill:none;stroke-width:1.5;stroke-linecap:round;stroke-linejoin:round;stroke:rgb(0%,0%,0%);stroke-opacity:1;stroke-miterlimit:4;" d="M 13.791667 25.1875 C 13.182292 25.177409 12.572917 25.167318 11.963542 25.152181 C 7.854167 25.05127 5.802083 25.000814 4.322917 23.532552 C 2.848958 22.06429 2.807292 20.08138 2.71875 16.120605 C 2.692708 14.849121 2.692708 13.582682 2.71875 12.306152 C 2.807292 8.345378 2.848958 6.362467 4.322917 4.899251 C 5.802083 3.43099 7.854167 3.380534 11.963542 3.274577 C 14.494792 3.21403 17.005208 3.21403 19.536458 3.274577 C 23.645833 3.380534 25.697917 3.43099 27.177083 4.899251 C 28.651042 6.362467 28.692708 8.345378 28.78125 12.306152 C 28.791667 12.896484 28.796875 13.168945 28.802083 13.5625 " transform="matrix(0.75,0,0,0.774194,0,0)"/>
<path style="fill:none;stroke-width:1.5;stroke-linecap:round;stroke-linejoin:round;stroke:rgb(0%,0%,0%);stroke-opacity:1;stroke-miterlimit:4;" d="M 24.885417 21.958333 C 24.885417 23.027995 24.010417 23.895833 22.927083 23.895833 C 21.84375 23.895833 20.96875 23.027995 20.96875 21.958333 C 20.96875 20.888672 21.84375 20.020833 22.927083 20.020833 C 24.010417 20.020833 24.885417 20.888672 24.885417 21.958333 Z M 24.885417 21.958333 L 24.885417 22.604167 C 24.885417 23.673828 25.760417 24.541667 26.84375 24.541667 C 27.921875 24.541667 28.802083 23.673828 28.802083 22.604167 L 28.802083 21.958333 C 28.802083 18.749349 26.171875 16.145833 22.927083 16.145833 C 19.682292 16.145833 17.057292 18.749349 17.057292 21.958333 C 17.057292 25.167318 19.682292 27.770833 22.927083 27.770833 " transform="matrix(0.75,0,0,0.774194,0,0)"/>
</g>
</svg>
