<?xml version="1.0" encoding="UTF-8"?>
<svg xmlns="http://www.w3.org/2000/svg" xmlns:xlink="http://www.w3.org/1999/xlink" width="24px" height="24px" viewBox="0 0 24 24" version="1.1">
<g id="surface1">
<path style="fill:none;stroke-width:1.5;stroke-linecap:butt;stroke-linejoin:miter;stroke:rgb(0%,0%,0%);stroke-opacity:1;stroke-miterlimit:4;" d="M 12.556315 28.416667 L 12.202148 23.885742 C 12.013997 21.44873 14.10026 19.375 16.739909 19.375 C 19.379557 19.375 21.460286 21.44873 21.272135 23.885742 L 20.923503 28.416667 " transform="matrix(0.705882,0,0,0.774194,0,0)"/>
<path style="fill:none;stroke-width:1.5;stroke-linecap:butt;stroke-linejoin:round;stroke:rgb(0%,0%,0%);stroke-opacity:1;stroke-miterlimit:4;" d="M 3.281576 17.069173 C 2.789062 14.102376 2.540039 12.618978 3.148763 11.302083 C 3.751953 9.985189 5.09668 9.087077 7.786133 7.285807 L 9.794922 5.943685 C 13.13737 3.703451 14.808594 2.583333 16.739909 2.583333 C 18.671224 2.583333 20.342448 3.703451 23.684896 5.943685 L 25.693685 7.285807 C 28.383138 9.087077 29.727865 9.985189 30.331055 11.302083 C 30.939779 12.618978 30.690755 14.102376 30.198242 17.069173 L 29.777669 19.597005 C 29.080404 23.805013 28.731771 25.909017 27.104818 27.160319 C 25.472331 28.416667 23.092773 28.416667 18.328125 28.416667 L 15.151693 28.416667 C 10.387044 28.416667 8.007487 28.416667 6.375 27.160319 C 4.748047 25.909017 4.399414 23.805013 3.702148 19.597005 Z M 3.281576 17.069173 " transform="matrix(0.705882,0,0,0.774194,0,0)"/>
</g>
</svg>
