<?xml version="1.0" encoding="UTF-8"?>
<svg xmlns="http://www.w3.org/2000/svg" xmlns:xlink="http://www.w3.org/1999/xlink" width="24px" height="24px" viewBox="0 0 24 24" version="1.1">
<g id="surface1">
<path style="fill:none;stroke-width:1.5;stroke-linecap:round;stroke-linejoin:miter;stroke:rgb(0%,0%,0%);stroke-opacity:1;stroke-miterlimit:4;" d="M 13.46875 2.583333 C 7.447917 3.794271 2.921875 9.056803 2.921875 15.368815 C 2.921875 22.573893 8.822917 28.416667 16.104167 28.416667 C 22.479167 28.416667 27.802083 23.936198 29.020833 17.977376 " transform="matrix(0.75,0,0,0.774194,0,0)"/>
<path style="fill:none;stroke-width:1.5;stroke-linecap:round;stroke-linejoin:round;stroke:rgb(0%,0%,0%);stroke-opacity:1;stroke-miterlimit:4;" d="M 25.026042 23.25 C 25.526042 23.144043 25.989583 22.972493 26.411458 22.735352 M 19.479167 22.397298 C 20.255208 22.735352 21.005208 22.982585 21.71875 23.149089 M 14.473958 19.309408 C 15.015625 19.68278 15.59375 20.131836 16.15625 20.520345 M 4.223958 17.856283 C 4.645833 17.65446 5.098958 17.422363 5.614583 17.22054 M 8.729167 16.791667 C 9.463542 16.872396 10.286458 17.079264 11.21875 17.467773 " transform="matrix(0.75,0,0,0.774194,0,0)"/>
<path style="fill:none;stroke-width:1.5;stroke-linecap:butt;stroke-linejoin:miter;stroke:rgb(0%,0%,0%);stroke-opacity:1;stroke-miterlimit:4;" d="M 23.802083 9.6875 C 23.802083 8.617839 22.927083 7.75 21.84375 7.75 C 20.760417 7.75 19.885417 8.617839 19.885417 9.6875 C 19.885417 10.757161 20.760417 11.625 21.84375 11.625 C 22.927083 11.625 23.802083 10.757161 23.802083 9.6875 Z M 23.802083 9.6875 " transform="matrix(0.75,0,0,0.774194,0,0)"/>
<path style="fill:none;stroke-width:1.5;stroke-linecap:butt;stroke-linejoin:miter;stroke:rgb(0%,0%,0%);stroke-opacity:1;stroke-miterlimit:4;" d="M 23.135417 17.593913 C 22.786458 17.906738 22.322917 18.083333 21.84375 18.083333 C 21.364583 18.083333 20.901042 17.906738 20.557292 17.593913 C 17.385417 14.692708 13.145833 11.453451 15.213542 6.750977 C 16.333333 4.208008 19.020833 2.583333 21.84375 2.583333 C 24.666667 2.583333 27.354167 4.208008 28.473958 6.750977 C 30.541667 11.448405 26.307292 14.702799 23.135417 17.593913 Z M 23.135417 17.593913 " transform="matrix(0.75,0,0,0.774194,0,0)"/>
</g>
</svg>
