<?xml version="1.0" encoding="UTF-8"?>
<svg xmlns="http://www.w3.org/2000/svg" xmlns:xlink="http://www.w3.org/1999/xlink" width="24px" height="24px" viewBox="0 0 24 24" version="1.1">
<g id="surface1">
<path style="fill:none;stroke-width:1.5;stroke-linecap:round;stroke-linejoin:round;stroke:rgb(7.843138%,10.588235%,20.392157%);stroke-opacity:1;stroke-miterlimit:4;" d="M 8.5 14.5 L 15.5 14.5 M 8.5 9.5 L 12 9.5 "/>
<path style="fill:none;stroke-width:1.5;stroke-linecap:butt;stroke-linejoin:round;stroke:rgb(7.843138%,10.588235%,20.392157%);stroke-opacity:1;stroke-miterlimit:4;" d="M 14.171875 20.890625 C 18.355469 20.613281 21.6875 17.234375 21.960938 12.992188 C 22.011719 12.160156 22.011719 11.300781 21.960938 10.46875 C 21.6875 6.226562 18.355469 2.847656 14.171875 2.570312 C 12.742188 2.476562 11.253906 2.476562 9.828125 2.570312 C 5.644531 2.847656 2.3125 6.226562 2.039062 10.46875 C 1.988281 11.300781 1.988281 12.160156 2.039062 12.992188 C 2.140625 14.535156 2.824219 15.964844 3.628906 17.175781 C 4.09375 18.019531 3.785156 19.074219 3.300781 19.996094 C 2.949219 20.664062 2.773438 20.996094 2.914062 21.234375 C 3.054688 21.476562 3.371094 21.484375 4 21.5 C 5.242188 21.527344 6.082031 21.175781 6.75 20.683594 C 7.125 20.40625 7.316406 20.265625 7.445312 20.25 C 7.574219 20.234375 7.832031 20.339844 8.34375 20.550781 C 8.804688 20.742188 9.339844 20.859375 9.828125 20.890625 C 11.253906 20.984375 12.742188 20.984375 14.171875 20.890625 Z M 14.171875 20.890625 "/>
</g>
</svg>
