<svg width="62" height="92" viewBox="0 0 62 92" fill="none" xmlns="http://www.w3.org/2000/svg">
<path d="M51.4192 66.002C48.4445 69.1002 44.248 69.1002 35.855 69.1002H25.6173C17.2244 69.1002 13.0279 69.1002 10.0532 66.002C8.95266 64.8557 7.99542 63.4318 7.22481 61.7948C5.14191 57.37 5.14191 51.1278 5.14191 38.6435C5.14191 26.1591 5.14191 19.917 7.22481 15.4922C7.99542 13.8551 8.95266 12.4313 10.0532 11.285C13.0279 8.18671 17.2244 8.18671 25.6173 8.18671" stroke="#141B34" stroke-width="4" stroke-linecap="round"/>
<path d="M30.8515 69.1002V84.3286" stroke="#141B34" stroke-width="4"/>
<path d="M20.5676 84.3286H41.1353" stroke="#141B34" stroke-width="4" stroke-linecap="round"/>
<path d="M46.2772 8.18671C51.1251 8.18671 53.549 8.18671 55.055 10.4169C56.561 12.647 56.561 16.2364 56.561 23.4151V38.6435C56.561 45.8222 56.561 49.4116 55.055 51.6417C53.549 53.8719 51.1251 53.8719 46.2772 53.8719H43.7063C38.8584 53.8719 36.4345 53.8719 34.9285 51.6417C33.4224 49.4116 33.4224 45.8222 33.4224 38.6435L33.4224 23.4151C33.4224 16.2364 33.4224 12.647 34.9285 10.4169C36.4345 8.18671 38.8584 8.18671 43.7063 8.18671L46.2772 8.18671Z" stroke="#141B34" stroke-width="4" stroke-linecap="round"/>
<path d="M44.9918 44.3541H45.0149" stroke="#141B34" stroke-width="4" stroke-linecap="round" stroke-linejoin="round"/>
</svg>
