<svg width="62" height="92" viewBox="0 0 62 92" fill="none" xmlns="http://www.w3.org/2000/svg">
<path d="M21.1973 59.0199L11.6693 42.7369C6.78062 34.3824 4.33629 30.2052 5.42071 26.7988C6.50512 23.3925 10.2793 23.3925 17.8276 23.3925H28.6725C36.2208 23.3925 39.9949 23.3925 41.0793 26.7988C42.1638 30.2052 39.7194 34.3824 34.8308 42.7369L25.3028 59.0199C24.3496 60.6489 23.873 61.4634 23.25 61.4634C22.6271 61.4634 22.1505 60.6489 21.1973 59.0199Z" stroke="#141B34" stroke-width="4" stroke-linecap="round"/>
<path d="M21.9584 23.3924L20.7282 12.515C20.6899 12.1762 20.4815 11.8802 20.1754 11.7298L12.9167 8.16406" stroke="#141B34" stroke-width="4" stroke-linecap="round"/>
<path d="M23.25 61.4634V84.306M19.375 84.306H27.125" stroke="#141B34" stroke-width="4" stroke-linecap="round"/>
<path d="M40.972 34.1792C42.636 36.9052 45.0542 38.6208 47.7457 38.6208C52.7646 38.6208 56.8333 32.6551 56.8333 25.296C56.8333 17.9369 52.7646 11.9711 47.7457 11.9711C43.1674 11.9711 39.3799 16.935 38.75 23.3924" stroke="#141B34" stroke-width="4" stroke-linecap="round"/>
</svg>
