<svg width="62" height="55" viewBox="0 0 62 55" fill="none" xmlns="http://www.w3.org/2000/svg">
<path d="M13.068 27.1433C18.0242 27.675 22.5554 24.4651 23.1887 19.9738C23.822 15.4826 17.9254 11.1541 20.0674 5.19257C9.46734 6.53205 5.81398 13.9825 5.24063 18.0486C4.60734 22.5398 8.11177 26.6117 13.068 27.1433Z" stroke="#141B34" stroke-width="4" stroke-linejoin="round"/>
<path d="M18.0834 45.7498C13.1114 35.2143 12.3223 25.9086 13.2596 18.7116" stroke="#141B34" stroke-width="4" stroke-linecap="round" stroke-linejoin="round"/>
<path d="M24.562 40.4957C27.5971 45.8855 34.9281 47.3719 40.9362 43.8155C46.9443 40.2591 47.8893 30.4052 56.8333 26.9699C47.289 17.7483 35.3842 21.0774 29.9449 24.2971C23.9368 27.8535 21.5268 35.1058 24.562 40.4957Z" stroke="#141B34" stroke-width="4" stroke-linejoin="round"/>
<path d="M15.5 50.2561C21.6426 41.0281 29.0996 35.4528 36.1667 32.2307" stroke="#141B34" stroke-width="4" stroke-linecap="round" stroke-linejoin="round"/>
</svg>
