<svg width="62" height="55" viewBox="0 0 62 55" fill="none" xmlns="http://www.w3.org/2000/svg">
<path d="M36.1667 4.95708C34.4973 4.66152 32.7694 4.50636 31 4.50636C16.7327 4.50636 5.16669 14.5942 5.16669 27.0382C5.16669 39.4821 16.7327 49.5699 31 49.5699C45.2674 49.5699 56.8334 39.4821 56.8334 27.0382C56.8334 25.4949 56.6555 23.9878 56.3166 22.5318" stroke="black" stroke-width="4" stroke-linecap="round"/>
<path d="M58.1297 6.02879C58.9655 5.30658 59.0575 4.04359 58.3353 3.20784C57.6131 2.37209 56.3501 2.28004 55.5143 3.00225L58.1297 6.02879ZM46.4155 15.2699L46.7208 13.2933L46.4155 15.2699ZM44.4923 13.592L46.4524 13.1944L46.4524 13.1944L44.4923 13.592ZM55.5069 17.7719C56.6114 17.7851 57.5174 16.9004 57.5306 15.7959C57.5438 14.6914 56.6591 13.7854 55.5546 13.7722L55.5069 17.7719ZM45.9164 5.61066C45.899 4.50623 44.9896 3.62503 43.8852 3.64244C42.7807 3.65986 41.8995 4.56929 41.9169 5.67372L45.9164 5.61066ZM46.3962 16.1682L58.1297 6.02879L55.5143 3.00225L43.7809 13.1416L46.3962 16.1682ZM46.7208 13.2933C46.5402 13.2654 46.467 13.2057 46.4538 13.1934L43.7232 16.1164C44.3863 16.7358 45.2247 17.1097 46.1102 17.2464L46.7208 13.2933ZM46.4538 13.1934C46.4502 13.19 46.4487 13.1881 46.4486 13.188C46.4484 13.1878 46.4492 13.1887 46.4502 13.1905C46.4513 13.1924 46.4521 13.1943 46.4526 13.1957C46.4532 13.1971 46.4529 13.1969 46.4524 13.1944L42.5322 13.9896C42.7018 14.8254 43.1243 15.5569 43.7232 16.1164L46.4538 13.1934ZM46.1102 17.2464C48.7142 17.6487 53.3415 17.7461 55.5069 17.7719L55.5546 13.7722C53.3171 13.7455 48.9908 13.644 46.7208 13.2933L46.1102 17.2464ZM41.9169 5.67372C41.9465 7.54748 42.0573 11.6481 42.5322 13.9896L46.4524 13.1944C46.0651 11.2849 45.9474 7.57697 45.9164 5.61066L41.9169 5.67372Z" fill="black"/>
<path d="M31 20.2786C28.1466 20.2786 25.8334 21.7918 25.8334 23.6584C25.8334 25.525 28.1466 27.0382 31 27.0382C33.8535 27.0382 36.1667 28.5513 36.1667 30.4179C36.1667 32.2845 33.8535 33.7977 31 33.7977M31 20.2786C33.2496 20.2786 35.1634 21.2191 35.8727 22.5318M31 20.2786V18.0254M31 33.7977C28.7504 33.7977 26.8366 32.8572 26.1274 31.5445M31 33.7977V36.0509" stroke="black" stroke-width="4" stroke-linecap="round"/>
</svg>
