<svg width="62" height="92" viewBox="0 0 62 92" fill="none" xmlns="http://www.w3.org/2000/svg">
<path d="M5.16669 26.6826C5.16669 21.3522 5.16669 18.687 5.8706 16.651C6.48979 14.8601 7.47779 13.4041 8.693 12.4916C10.0745 11.4542 11.883 11.4542 15.5 11.4542C19.117 11.4542 20.9255 11.4542 22.307 12.4916C23.5223 13.4041 24.5103 14.8601 25.1294 16.651C25.8334 18.687 25.8334 21.3522 25.8334 26.6826V64.7536C25.8334 70.084 25.8334 72.7492 25.1294 74.7852C24.5103 76.5761 23.5223 78.0321 22.307 78.9446C20.9255 79.982 19.117 79.982 15.5 79.982C11.883 79.982 10.0745 79.982 8.693 78.9446C7.47779 78.0321 6.48979 76.5761 5.8706 74.7852C5.16669 72.7492 5.16669 70.084 5.16669 64.7536V26.6826Z" stroke="#141B34" stroke-width="4" stroke-linecap="round" stroke-linejoin="round"/>
<path d="M15.5 64.7535H15.5232" stroke="#141B34" stroke-width="4" stroke-linecap="round" stroke-linejoin="round"/>
<path d="M5.16669 26.6826H25.8334" stroke="#141B34" stroke-width="4" stroke-linecap="round" stroke-linejoin="round"/>
<path d="M29.5756 31.5116C28.6588 26.448 28.2004 23.9162 28.5161 21.7181C28.7938 19.7846 29.478 18.0309 30.4707 16.7082C31.5991 15.2045 33.31 14.5261 36.7316 13.1693C40.1533 11.8125 41.8641 11.1341 43.3495 11.6014C44.656 12.0123 45.8411 13.0249 46.7349 14.4938C47.751 16.1638 48.2094 18.6956 49.1262 23.7593L55.6744 59.9246C56.5912 64.9882 57.0496 67.52 56.7339 69.7181C56.4562 71.6516 55.772 73.4053 54.7794 74.728C53.6509 76.2317 51.9401 76.9101 48.5184 78.2669C45.0967 79.6236 43.3859 80.302 41.9006 79.8348C40.594 79.4238 39.4089 78.4113 38.5152 76.9423C37.4991 75.2723 37.0407 72.7405 36.1238 67.6769L29.5756 31.5116Z" stroke="#141B34" stroke-width="4" stroke-linecap="round" stroke-linejoin="round"/>
<path d="M45.9349 63.5936L45.9573 63.5848" stroke="#141B34" stroke-width="4" stroke-linecap="round" stroke-linejoin="round"/>
<path d="M31 30.4904L47.792 22.8755" stroke="#141B34" stroke-width="4" stroke-linecap="round" stroke-linejoin="round"/>
</svg>
