<svg width="62" height="55" viewBox="0 0 62 55" fill="none" xmlns="http://www.w3.org/2000/svg">
<path d="M30.9953 5.37024C23.2252 5.37024 18.1871 9.91939 12.2287 11.5775C9.80602 12.2517 8.59465 12.5888 8.10442 13.0641C7.61418 13.5393 7.47062 14.2337 7.18351 15.6225C4.11118 30.4842 10.8265 44.224 26.8416 49.5719C28.5623 50.1465 29.4227 50.4338 31.0038 50.4338C32.5849 50.4338 33.4453 50.1465 35.1659 49.5719C51.18 44.2239 57.8889 30.4841 54.8157 15.6225C54.5284 14.2334 54.3848 13.5389 53.8945 13.0637C53.4041 12.5885 52.1928 12.2516 49.7703 11.5777C43.8095 9.91974 38.7657 5.37024 30.9953 5.37024Z" stroke="#141B34" stroke-width="4" stroke-linecap="round" stroke-linejoin="round"/>
<path d="M31 16.6361L31 21.1425" stroke="#141B34" stroke-width="4" stroke-linecap="round"/>
</svg>
